<?xml version="1.0" encoding="utf-8"?>
<!-- Generator: Adobe Illustrator 21.1.0, SVG Export Plug-In . SVG Version: 6.00 Build 0)  -->
<svg version="1.1" id="Layer_1" xmlns="http://www.w3.org/2000/svg" xmlns:xlink="http://www.w3.org/1999/xlink" x="0px" y="0px"
	 viewBox="0 0 100 100" style="enable-background:new 0 0 100 100;" xml:space="preserve">
<style type="text/css">
	.st0{fill:#B7B4A4;}
	.st1{fill:#321339;}
	.st2{fill:#FFFFFF;}
</style>
<path class="st0" d="M88.4,69.3H11.6c-2.6,0-4.7-2.1-4.7-4.7l3.4-30.1c0-2.6,2.1-4.7,4.7-4.7H85c2.6,0,4.7,2.1,4.7,4.7l3.4,30.1
	C93.2,67.2,91,69.3,88.4,69.3z"/>
<polygon class="st1" points="84.4,63.1 15.6,63.1 18.3,32.6 81.7,32.6 "/>
<circle class="st2" cx="50" cy="47.8" r="13.2"/>
<g>
	<circle class="st1" cx="42.8" cy="44.1" r="1.5"/>
	<path class="st1" d="M52.6,46.3C51.9,47,51,47.3,50,47.3c-1,0-1.9-0.4-2.6-1.1c-0.2-0.2-0.2-0.5,0-0.7c0.2-0.2,0.5-0.2,0.7,0
		c0.5,0.5,1.2,0.8,2,0.8c0.7,0,1.4-0.3,2-0.8c0.2-0.2,0.5-0.2,0.7,0C52.8,45.8,52.8,46.1,52.6,46.3z"/>
	<circle class="st1" cx="57.2" cy="44.1" r="1.5"/>
</g>
</svg>
