<?xml version="1.0" encoding="utf-8"?>
<!-- Generator: Adobe Illustrator 21.1.0, SVG Export Plug-In . SVG Version: 6.00 Build 0)  -->
<svg version="1.1" id="Layer_1" xmlns="http://www.w3.org/2000/svg" xmlns:xlink="http://www.w3.org/1999/xlink" x="0px" y="0px"
	 viewBox="0 0 100 100" style="enable-background:new 0 0 100 100;" xml:space="preserve">
<style type="text/css">
	.st0{fill:#B7B4A4;}
	.st1{fill:#321339;}
	.st2{fill:#FFFFFF;}
</style>
<path class="st0" d="M11.6,29.7h76.8c2.6,0,4.7,2.1,4.7,4.7l-3.4,30.1c0,2.6-2.1,4.7-4.7,4.7H15c-2.6,0-4.7-2.1-4.7-4.7L6.8,34.5
	C6.8,31.8,9,29.7,11.6,29.7z"/>
<polygon class="st1" points="15.6,36 84.4,36 81.7,66.5 18.3,66.5 "/>
<circle class="st2" cx="50" cy="51.2" r="13.2"/>
<g>
	<circle class="st1" cx="42.8" cy="53.9" r="1.5"/>
	<path class="st1" d="M52.6,56.1c-0.7,0.7-1.6,1.1-2.6,1.1c-1,0-1.9-0.4-2.6-1.1c-0.2-0.2-0.2-0.5,0-0.7c0.2-0.2,0.5-0.2,0.7,0
		c0.5,0.5,1.2,0.8,2,0.8c0.7,0,1.4-0.3,2-0.8c0.2-0.2,0.5-0.2,0.7,0C52.8,55.6,52.8,55.9,52.6,56.1z"/>
	<circle class="st1" cx="57.2" cy="53.9" r="1.5"/>
</g>
</svg>
