<?xml version="1.0" encoding="utf-8"?>
<!-- Generator: Adobe Illustrator 21.1.0, SVG Export Plug-In . SVG Version: 6.00 Build 0)  -->
<svg version="1.1" id="Layer_1" xmlns="http://www.w3.org/2000/svg" xmlns:xlink="http://www.w3.org/1999/xlink" x="0px" y="0px"
	 viewBox="0 0 100 100" style="enable-background:new 0 0 100 100;" xml:space="preserve">
<style type="text/css">
	.st0{fill:#B7B4A4;}
	.st1{fill:#321339;}
	.st2{fill:#FFFFFF;}
</style>
<path class="st0" d="M11.6,28.4h76.8c2.6,0,4.7,2.1,4.7,4.7v32.8c0,2.6-2.1,4.7-4.7,4.7H11.6c-2.6,0-4.7-2.1-4.7-4.7V33.1
	C6.8,30.5,9,28.4,11.6,28.4z"/>
<rect x="15" y="32.2" class="st1" width="70.1" height="34.6"/>
<circle class="st2" cx="50" cy="49.5" r="13.2"/>
<g>
	<circle class="st1" cx="42.8" cy="48.6" r="1.5"/>
	<path class="st1" d="M52.6,50.8c-0.7,0.7-1.6,1.1-2.6,1.1c-1,0-1.9-0.4-2.6-1.1c-0.2-0.2-0.2-0.5,0-0.7c0.2-0.2,0.5-0.2,0.7,0
		c0.5,0.5,1.2,0.8,2,0.8c0.7,0,1.4-0.3,2-0.8c0.2-0.2,0.5-0.2,0.7,0C52.8,50.4,52.8,50.7,52.6,50.8z"/>
	<circle class="st1" cx="57.2" cy="48.6" r="1.5"/>
</g>
<polygon class="st0" points="44.1,26.2 44.1,21 36.7,21 50,7.8 63.3,21 55.9,21 55.9,26.2 "/>
<polygon class="st0" points="55.9,72.8 55.9,78 63.3,78 50,91.3 36.7,78 44.1,78 44.1,72.8 "/>
</svg>
