<?xml version="1.0" encoding="utf-8"?>
<!-- Generator: Adobe Illustrator 21.1.0, SVG Export Plug-In . SVG Version: 6.00 Build 0)  -->
<svg version="1.1" id="Layer_1" xmlns="http://www.w3.org/2000/svg" xmlns:xlink="http://www.w3.org/1999/xlink" x="0px" y="0px"
	 viewBox="0 0 100 100" style="enable-background:new 0 0 100 100;" xml:space="preserve">
<style type="text/css">
	.st0{fill:#B7B4A4;}
	.st1{fill:#FFFFFF;}
	.st2{fill:#19ADE5;}
</style>
<polygon class="st0" points="30.9,64.4 30.9,47.8 7.4,47.8 50,5.1 92.6,47.8 69.1,47.8 69.1,64.4 "/>
<path class="st1" d="M13.5,71.5V96h73.1V71.5H13.5z M30.2,90.5c-3.7,0-6.8-3-6.8-6.8c0-3.7,3-6.8,6.8-6.8s6.8,3,6.8,6.8
	C37,87.4,33.9,90.5,30.2,90.5z M57.2,89.9c-1.9,1.9-4.4,3-7.2,3c-2.8,0-5.3-1-7.2-3c-0.6-0.6-0.6-1.2,0-1.8c0.6-0.6,1.2-0.6,1.8,0
	c1.4,1.4,3.3,2.2,5.4,2.2s3.9-0.8,5.4-2.2c0.6-0.6,1.2-0.6,1.8,0C57.7,88.6,57.7,89.4,57.2,89.9z M69.9,90.5c-3.7,0-6.8-3-6.8-6.8
	c0-3.7,3-6.8,6.8-6.8c3.7,0,6.8,3,6.8,6.8C76.6,87.6,73.7,90.5,69.9,90.5z"/>
<rect x="26.2" y="79.7" class="st1" width="8" height="8"/>
<circle class="st2" cx="30.2" cy="83.8" r="2.5"/>
<rect x="65.9" y="79.7" class="st1" width="8" height="8"/>
<circle class="st2" cx="69.9" cy="83.8" r="2.5"/>
</svg>
